<svg xmlns="http://www.w3.org/2000/svg" viewBox="0 0 600 600" width="600" height="600"><rect width="600" height="600" fill="#eeb0bf" /><circle cx="60" cy="60" r="14" fill="#d8b78d" opacity="0.55" /><circle cx="156" cy="60" r="20" fill="#e3cd96" opacity="0.55" /><circle cx="252" cy="60" r="26" fill="#d8b78d" opacity="0.55" /><circle cx="348" cy="60" r="14" fill="#e3cd96" opacity="0.55" /><circle cx="444" cy="60" r="20" fill="#d8b78d" opacity="0.55" /><circle cx="540" cy="60" r="26" fill="#e3cd96" opacity="0.55" /><circle cx="60" cy="190" r="14" fill="#d8b78d" opacity="0.55" /><circle cx="156" cy="190" r="20" fill="#e3cd96" opacity="0.55" /><circle cx="252" cy="190" r="26" fill="#d8b78d" opacity="0.55" /><circle cx="348" cy="190" r="14" fill="#e3cd96" opacity="0.55" /><circle cx="444" cy="190" r="20" fill="#d8b78d" opacity="0.55" /><circle cx="540" cy="190" r="26" fill="#e3cd96" opacity="0.55" /><circle cx="60" cy="320" r="14" fill="#d8b78d" opacity="0.55" /><circle cx="156" cy="320" r="20" fill="#e3cd96" opacity="0.55" /><circle cx="252" cy="320" r="26" fill="#d8b78d" opacity="0.55" /><circle cx="348" cy="320" r="14" fill="#e3cd96" opacity="0.55" /><circle cx="444" cy="320" r="20" fill="#d8b78d" opacity="0.55" /><circle cx="540" cy="320" r="26" fill="#e3cd96" opacity="0.55" /><circle cx="60" cy="450" r="14" fill="#d8b78d" opacity="0.55" /><circle cx="156" cy="450" r="20" fill="#e3cd96" opacity="0.55" /><circle cx="252" cy="450" r="26" fill="#d8b78d" opacity="0.55" /><circle cx="348" cy="450" r="14" fill="#e3cd96" opacity="0.55" /><circle cx="444" cy="450" r="20" fill="#d8b78d" opacity="0.55" /><circle cx="540" cy="450" r="26" fill="#e3cd96" opacity="0.55" /></svg>